<!-- modified from https://yesicon.app/solar/chef-hat-outline
using Inkscape (https://inkscape.org/)

⚡ svg letters made with https://danmarshall.github.io/google-font-to-svg-path/
used font: Afacad Flux
repo: https://github.com/danmarshall/google-font-to-svg-path -->

<svg
  width="138.97508"
  height="25.595924"
  viewBox="0 0 36.77049 6.7722549"
  xmlns="http://www.w3.org/2000/svg"
>
  <g transform="translate(-124.04592,-162.71604)" fill="#f0ad3a">
    <g>
      <path
        d="m 125.84682,163.61806 a 1.574584,1.574584 0 0 1 2.84744,0 1.7245444,1.7245444 0 0 1 0.90066,3.23764 v 0.90035 c 0,0.26963 0,0.49429 -0.024,0.67242 -0.0252,0.18837 -0.081,0.35841 -0.21774,0.49487 -0.13647,0.13678 -0.30653,0.19257 -0.49488,0.21777 -0.17814,0.024 -0.40309,0.024 -0.67241,0.024 h -1.83073 c -0.26932,0 -0.49426,0 -0.67241,-0.024 -0.18835,-0.0252 -0.35841,-0.0809 -0.49488,-0.21777 -0.13676,-0.13646 -0.19254,-0.3065 -0.21773,-0.49487 -0.024,-0.17813 -0.024,-0.40279 -0.024,-0.67242 V 166.856 a 1.7245444,1.7245444 0 0 1 0.90066,-3.23763 m -0.13496,0.44986 a 1.2746631,1.2746631 0 0 0 -0.45079,2.44166 0.22494055,0.22494055 0 0 1 0.13498,0.20605 v 0.79959 h 3.749 v -0.79959 a 0.22494055,0.22494055 0 0 1 0.13496,-0.20605 1.274963,1.274963 0 0 0 -0.45078,-2.44196 q 0.0159,0.10949 0.0159,0.22344 v 0.14997 a 0.2249406,0.2249406 0 0 1 -0.44987,0 v -0.14997 a 1.1235031,1.1235031 0 0 0 -1.1247,-1.1247 1.1247027,1.1247027 0 0 0 -1.12471,1.1247 v 0.14997 a 0.2249422,0.2249422 0 0 1 -0.44988,0 v -0.14997 q 0,-0.11395 0.0159,-0.22344 m 3.43259,3.89748 h -3.74781 c 6.1e-4,0.17095 0.005,0.29991 0.0195,0.40339 0.0186,0.13828 0.0507,0.19765 0.09,0.23662 0.0392,0.039 0.0981,0.0712 0.23634,0.09 0.14486,0.0193 0.33921,0.0198 0.62833,0.0198 h 1.79953 c 0.28913,0 0.48347,-8.5e-4 0.62834,-0.0201 0.13825,-0.0185 0.19764,-0.0507 0.23663,-0.09 0.0391,-0.0393 0.071,-0.098 0.09,-0.23633 0.0138,-0.10376 0.0179,-0.23275 0.0192,-0.40339"
      />
    </g>
    <g
      fill-rule="evenodd"
      transform="matrix(0.21910858,0,0,0.21910858,131.48325,163.73669)"
    >
      <path d="M 1.646,20 H 0 V 1.25 H 4.438 A 6.85,6.85 0 0 1 5.887,1.396 5.237,5.237 0 0 1 7.302,1.917 5.02,5.02 0 0 1 8.813,3.159 4.801,4.801 0 0 1 9.198,3.708 Q 9.875,4.833 9.875,6.167 A 4.633,4.633 0 0 1 9.619,7.72 4.328,4.328 0 0 1 9.417,8.198 4.579,4.579 0 0 1 8.125,9.781 5.474,5.474 0 0 1 6.766,10.558 6.675,6.675 0 0 1 6.146,10.771 L 12.708,20 H 10.75 L 4.396,11.021 h -2.75 z m 0,-17.292 V 9.667 H 4.271 A 5.834,5.834 0 0 0 5.26,9.587 Q 5.944,9.47 6.479,9.177 A 3.666,3.666 0 0 0 7.328,8.548 3.161,3.161 0 0 0 7.833,7.885 3.408,3.408 0 0 0 8.292,6.167 3.355,3.355 0 0 0 8.005,4.777 3.266,3.266 0 0 0 7.802,4.396 3.36,3.36 0 0 0 6.492,3.185 3.978,3.978 0 0 0 6.438,3.156 4.014,4.014 0 0 0 5.23,2.771 5.313,5.313 0 0 0 4.396,2.708 Z" />
      <path d="m 25.688,13.604 v 0.542 H 16.917 A 14.702,14.702 0 0 1 16.091,14.122 16.274,16.274 0 0 1 15.969,14.115 Q 15.479,14.083 15,14.042 a 5.126,5.126 0 0 0 0.432,1.801 4.819,4.819 0 0 0 0.339,0.626 q 0.687,1.073 1.802,1.687 a 4.989,4.989 0 0 0 2.3,0.612 5.871,5.871 0 0 0 0.169,0.003 q 1.271,0 2.343,-0.573 1.073,-0.573 1.74,-1.531 l 0.438,1.812 a 6.702,6.702 0 0 1 -1.97,1.262 7.556,7.556 0 0 1 -0.072,0.03 6.495,6.495 0 0 1 -2.417,0.479 7.376,7.376 0 0 1 -0.083,0 6.851,6.851 0 0 1 -1.983,-0.281 6.279,6.279 0 0 1 -0.611,-0.219 Q 16.229,19.25 15.333,18.375 14.438,17.5 13.927,16.323 a 6.274,6.274 0 0 1 -0.506,-2.296 7.263,7.263 0 0 1 -0.004,-0.256 6.321,6.321 0 0 1 0.269,-1.863 5.815,5.815 0 0 1 0.21,-0.575 q 0.479,-1.125 1.333,-1.979 a 6.076,6.076 0 0 1 1.979,-1.323 q 1.125,-0.468 2.396,-0.468 1.688,0 3.073,0.802 a 6.033,6.033 0 0 1 2.198,2.166 5.815,5.815 0 0 1 0.805,2.756 6.988,6.988 0 0 1 0.007,0.317 z m -8.771,-0.771 h 5.521 a 13.852,13.852 0 0 1 0.476,0.008 10.194,10.194 0 0 1 0.43,0.024 q 0.406,0.031 0.802,0.073 -0.167,-1.146 -0.802,-2.042 A 4.627,4.627 0 0 0 21.74,9.479 4.417,4.417 0 0 0 19.695,8.959 5.175,5.175 0 0 0 19.604,8.958 q -1.146,0 -2.135,0.532 a 4.767,4.767 0 0 0 -1.636,1.427 4.75,4.75 0 0 0 -0.833,2.041 14.91,14.91 0 0 1 0.958,-0.093 14.722,14.722 0 0 1 0.959,-0.032 z" />
      <path d="m 39.042,9.438 -0.459,1.937 A 4.825,4.825 0 0 0 36.865,9.687 4.684,4.684 0 0 0 34.437,9.042 4.806,4.806 0 0 0 32.51,9.426 4.647,4.647 0 0 0 31.979,9.698 q -1.104,0.656 -1.76,1.76 a 4.682,4.682 0 0 0 -0.657,2.438 4.737,4.737 0 0 0 0.657,2.448 q 0.656,1.114 1.76,1.771 a 4.712,4.712 0 0 0 2.416,0.656 5.558,5.558 0 0 0 0.043,0 4.684,4.684 0 0 0 2.427,-0.646 q 1.093,-0.646 1.718,-1.687 l 0.459,1.937 a 6.751,6.751 0 0 1 -2.052,1.365 6.274,6.274 0 0 1 -2.296,0.506 7.263,7.263 0 0 1 -0.257,0.004 q -1.333,0 -2.499,-0.5 -1.167,-0.5 -2.053,-1.365 Q 29,17.521 28.5,16.365 28,15.208 28,13.896 q 0,-1.313 0.5,-2.458 a 6.431,6.431 0 0 1 1.385,-2.021 6.43,6.43 0 0 1 2.053,-1.365 6.39,6.39 0 0 1 2.479,-0.489 7.223,7.223 0 0 1 0.021,0 6.513,6.513 0 0 1 1.951,0.287 6.01,6.01 0 0 1 0.601,0.223 q 1.177,0.51 2.052,1.365 z" />
      <path d="M 43.438,20 H 41.875 V 7.813 h 1.563 z M 42.246,5.114 a 1.071,1.071 0 0 0 0.4,0.074 1.301,1.301 0 0 0 0.161,-0.01 1.025,1.025 0 0 0 0.422,-0.147 q 0.25,-0.156 0.396,-0.406 0.146,-0.25 0.146,-0.562 A 1.371,1.371 0 0 0 43.758,3.872 1.065,1.065 0 0 0 43.625,3.479 Q 43.479,3.229 43.229,3.083 a 1.031,1.031 0 0 0 -0.275,-0.11 1.288,1.288 0 0 0 -0.308,-0.035 1.297,1.297 0 0 0 -0.068,10e-4 1.079,1.079 0 0 0 -0.495,0.144 1.166,1.166 0 0 0 -0.406,0.396 0.992,0.992 0 0 0 -0.116,0.266 1.201,1.201 0 0 0 -0.04,0.318 1.237,1.237 0 0 0 0,0.02 1.035,1.035 0 0 0 0.156,0.542 q 0.156,0.25 0.406,0.406 a 1.015,1.015 0 0 0 0.163,0.083 z" />
      <path d="M 49.229,26.25 H 47.667 V 7.813 h 1.437 v 2.25 q 0.834,-1.105 2.073,-1.761 a 5.71,5.71 0 0 1 2.673,-0.656 6.635,6.635 0 0 1 0.046,0 5.923,5.923 0 0 1 2.364,0.479 q 1.115,0.479 1.959,1.344 0.844,0.864 1.312,2 Q 60,12.604 60,13.896 a 6.458,6.458 0 0 1 -0.258,1.845 5.901,5.901 0 0 1 -0.211,0.592 6.281,6.281 0 0 1 -1.312,1.99 q -0.844,0.865 -1.959,1.354 -1.114,0.49 -2.364,0.49 A 5.745,5.745 0 0 1 51.672,19.738 5.533,5.533 0 0 1 51.25,19.542 6.056,6.056 0 0 1 49.229,17.875 Z m 4.479,-7.521 q 1.313,0 2.386,-0.656 a 4.938,4.938 0 0 0 1.708,-1.74 4.665,4.665 0 0 0 0.635,-2.313 5.535,5.535 0 0 0 0.001,-0.103 q 0,-1.354 -0.636,-2.448 a 4.826,4.826 0 0 0 -1.708,-1.74 4.536,4.536 0 0 0 -2.386,-0.646 4.536,4.536 0 0 0 -2.385,0.646 4.826,4.826 0 0 0 -1.708,1.74 4.735,4.735 0 0 0 -0.636,2.385 5.57,5.57 0 0 0 0,0.042 4.821,4.821 0 0 0 0.388,1.937 4.668,4.668 0 0 0 0.248,0.49 4.911,4.911 0 0 0 1.708,1.75 q 1.073,0.656 2.385,0.656 z" />
      <path d="m 74.646,13.604 v 0.542 h -8.771 a 14.702,14.702 0 0 1 -0.826,-0.024 16.274,16.274 0 0 1 -0.122,-0.007 q -0.489,-0.032 -0.969,-0.073 a 5.126,5.126 0 0 0 0.432,1.801 4.819,4.819 0 0 0 0.339,0.626 q 0.688,1.073 1.802,1.687 a 4.989,4.989 0 0 0 2.301,0.612 5.871,5.871 0 0 0 0.168,0.003 q 1.271,0 2.344,-0.573 1.073,-0.573 1.739,-1.531 l 0.438,1.812 a 6.702,6.702 0 0 1 -1.969,1.262 7.556,7.556 0 0 1 -0.073,0.03 6.495,6.495 0 0 1 -2.417,0.479 7.376,7.376 0 0 1 -0.083,0 6.851,6.851 0 0 1 -1.982,-0.281 6.279,6.279 0 0 1 -0.612,-0.219 Q 65.188,19.25 64.292,18.375 63.396,17.5 62.885,16.323 a 6.274,6.274 0 0 1 -0.506,-2.296 7.263,7.263 0 0 1 -0.004,-0.256 6.321,6.321 0 0 1 0.27,-1.863 5.815,5.815 0 0 1 0.209,-0.575 q 0.479,-1.125 1.334,-1.979 a 6.076,6.076 0 0 1 1.979,-1.323 q 1.125,-0.468 2.396,-0.468 1.687,0 3.072,0.802 a 6.033,6.033 0 0 1 2.198,2.166 5.815,5.815 0 0 1 0.806,2.756 6.988,6.988 0 0 1 0.007,0.317 z m -8.771,-0.771 h 5.521 a 13.852,13.852 0 0 1 0.476,0.008 10.194,10.194 0 0 1 0.43,0.024 q 0.406,0.031 0.802,0.073 -0.166,-1.146 -0.802,-2.042 A 4.627,4.627 0 0 0 70.698,9.479 4.417,4.417 0 0 0 68.653,8.959 5.175,5.175 0 0 0 68.562,8.958 q -1.145,0 -2.135,0.532 a 4.767,4.767 0 0 0 -1.635,1.427 4.75,4.75 0 0 0 -0.834,2.041 14.91,14.91 0 0 1 0.959,-0.093 14.722,14.722 0 0 1 0.958,-0.032 z" />
      <path d="M 83.583,20 H 78.5 V 1.25 h 5 q 1.583,0 2.615,0.625 a 4.532,4.532 0 0 1 0.948,0.755 3.815,3.815 0 0 1 0.593,0.818 4.224,4.224 0 0 1 0.456,1.297 3.867,3.867 0 0 1 0.055,0.651 q 0,1.146 -0.615,2.073 -0.614,0.927 -1.656,1.406 a 6.165,6.165 0 0 1 1.465,0.686 5.46,5.46 0 0 1 0.649,0.491 q 0.886,0.781 1.365,1.844 a 5.5,5.5 0 0 1 0.479,2.253 6.275,6.275 0 0 1 0,0.038 5.89,5.89 0 0 1 -0.416,2.209 q -0.417,1.042 -1.23,1.854 A 5.735,5.735 0 0 1 86.593,19.376 6.718,6.718 0 0 1 86.24,19.531 6.255,6.255 0 0 1 84.788,19.917 8.34,8.34 0 0 1 83.583,20 Z M 80.146,9.688 v 8.854 h 3.229 q 1.646,0 2.708,-0.636 a 4.406,4.406 0 0 0 1.086,-0.9 3.955,3.955 0 0 0 0.508,-0.746 4.566,4.566 0 0 0 0.531,-2.156 q 0,-1.125 -0.52,-2.135 A 3.898,3.898 0 0 0 86.478,10.585 4.885,4.885 0 0 0 86.073,10.323 4.337,4.337 0 0 0 84.919,9.869 Q 84.408,9.744 83.811,9.705 A 8.583,8.583 0 0 0 83.25,9.688 Z m 0,-6.98 v 5.605 h 3.167 A 4.936,4.936 0 0 0 84.152,8.245 Q 84.633,8.162 85.034,7.977 A 3.067,3.067 0 0 0 85.073,7.958 2.842,2.842 0 0 0 85.796,7.471 2.493,2.493 0 0 0 86.208,6.969 2.622,2.622 0 0 0 86.588,5.83 3.275,3.275 0 0 0 86.604,5.5 2.963,2.963 0 0 0 86.501,4.702 2.461,2.461 0 0 0 86.208,4.042 2.681,2.681 0 0 0 85.202,3.114 3.216,3.216 0 0 0 85.104,3.063 Q 84.397,2.709 83.42,2.708 a 3.561,3.561 0 0 0 -0.003,0 z" />
      <path d="m 96.668,19.901 a 6.401,6.401 0 0 0 2.124,0.349 q 1.333,0 2.489,-0.49 1.157,-0.489 2.042,-1.364 a 6.398,6.398 0 0 0 1.385,-2.031 q 0.5,-1.157 0.5,-2.469 0,-1.313 -0.5,-2.458 -0.5,-1.146 -1.375,-2.021 a 6.309,6.309 0 0 0 -2.041,-1.365 6.194,6.194 0 0 0 -0.073,-0.03 6.407,6.407 0 0 0 -2.427,-0.459 q -1.334,0 -2.49,0.489 a 6.462,6.462 0 0 0 -2.042,1.365 6.431,6.431 0 0 0 -1.385,2.021 q -0.5,1.145 -0.5,2.458 0,1.312 0.5,2.469 a 6.398,6.398 0 0 0 1.385,2.031 q 0.886,0.875 2.042,1.364 a 6.045,6.045 0 0 0 0.366,0.141 z m 2.124,-1.13 a 4.806,4.806 0 0 0 1.927,-0.385 4.647,4.647 0 0 0 0.531,-0.271 4.888,4.888 0 0 0 1.75,-1.761 q 0.646,-1.104 0.646,-2.437 a 4.89,4.89 0 0 0 -0.348,-1.854 4.666,4.666 0 0 0 -0.298,-0.605 4.888,4.888 0 0 0 -1.75,-1.76 4.712,4.712 0 0 0 -2.416,-0.656 5.558,5.558 0 0 0 -0.042,0 q -1.334,0 -2.438,0.656 -1.104,0.656 -1.76,1.76 a 4.682,4.682 0 0 0 -0.657,2.438 4.806,4.806 0 0 0 0.385,1.927 4.647,4.647 0 0 0 0.272,0.531 q 0.656,1.104 1.76,1.761 a 4.682,4.682 0 0 0 2.438,0.656 z" />
      <path d="M 111.876,19.901 A 6.401,6.401 0 0 0 114,20.25 q 1.333,0 2.49,-0.49 1.156,-0.489 2.041,-1.364 a 6.398,6.398 0 0 0 1.386,-2.031 q 0.5,-1.157 0.5,-2.469 0,-1.313 -0.5,-2.458 -0.5,-1.146 -1.375,-2.021 A 6.309,6.309 0 0 0 116.5,8.052 6.194,6.194 0 0 0 116.427,8.022 6.407,6.407 0 0 0 114,7.563 q -1.333,0 -2.49,0.489 a 6.462,6.462 0 0 0 -2.041,1.365 6.431,6.431 0 0 0 -1.386,2.021 q -0.5,1.145 -0.5,2.458 0,1.312 0.5,2.469 a 6.398,6.398 0 0 0 1.386,2.031 q 0.885,0.875 2.041,1.364 a 6.045,6.045 0 0 0 0.366,0.141 z M 114,18.771 a 4.806,4.806 0 0 0 1.927,-0.385 4.647,4.647 0 0 0 0.531,-0.271 4.888,4.888 0 0 0 1.75,-1.761 q 0.646,-1.104 0.646,-2.437 a 4.89,4.89 0 0 0 -0.348,-1.854 4.666,4.666 0 0 0 -0.298,-0.605 4.888,4.888 0 0 0 -1.75,-1.76 4.712,4.712 0 0 0 -2.416,-0.656 5.558,5.558 0 0 0 -0.042,0 q -1.333,0 -2.437,0.656 -1.105,0.656 -1.761,1.76 a 4.682,4.682 0 0 0 -0.656,2.438 4.806,4.806 0 0 0 0.385,1.927 4.647,4.647 0 0 0 0.271,0.531 q 0.656,1.104 1.761,1.761 A 4.682,4.682 0 0 0 114,18.771 Z" />
      <path d="M 125.313,20 H 123.75 V 0 h 1.563 z m 8.562,0 h -2.021 l -6.041,-6.729 4.979,-5.458 h 1.833 l -4.917,5.354 z" />
    </g>
  </g>
</svg>